<svg width="22" height="22" viewBox="0 0 22 22" fill="none" xmlns="http://www.w3.org/2000/svg">
<path d="M11 14.6667C12.1458 14.6667 13.1198 14.2656 13.9218 13.4635C14.7239 12.6615 15.125 11.6875 15.125 10.5417C15.125 9.39584 14.7239 8.42188 13.9218 7.6198C13.1198 6.81771 12.1458 6.41667 11 6.41667C9.85413 6.41667 8.88017 6.81771 8.07808 7.6198C7.276 8.42188 6.87496 9.39584 6.87496 10.5417C6.87496 11.6875 7.276 12.6615 8.07808 13.4635C8.88017 14.2656 9.85413 14.6667 11 14.6667ZM11 13.0167C10.3125 13.0167 9.72808 12.776 9.24683 12.2948C8.76558 11.8135 8.52496 11.2292 8.52496 10.5417C8.52496 9.85417 8.76558 9.2698 9.24683 8.78855C9.72808 8.3073 10.3125 8.06667 11 8.06667C11.6875 8.06667 12.2718 8.3073 12.7531 8.78855C13.2343 9.2698 13.475 9.85417 13.475 10.5417C13.475 11.2292 13.2343 11.8135 12.7531 12.2948C12.2718 12.776 11.6875 13.0167 11 13.0167ZM11 17.4167C8.7694 17.4167 6.73746 16.7941 4.90413 15.549C3.07079 14.3038 1.74163 12.6347 0.916626 10.5417C1.74163 8.44862 3.07079 6.77952 4.90413 5.53438C6.73746 4.28924 8.7694 3.66667 11 3.66667C13.2305 3.66667 15.2625 4.28924 17.0958 5.53438C18.9291 6.77952 20.2583 8.44862 21.0833 10.5417C20.2583 12.6347 18.9291 14.3038 17.0958 15.549C15.2625 16.7941 13.2305 17.4167 11 17.4167ZM11 15.5833C12.7263 15.5833 14.3114 15.1288 15.7552 14.2198C17.1989 13.3108 18.3027 12.0847 19.0666 10.5417C18.3027 8.99862 17.1989 7.77257 15.7552 6.86355C14.3114 5.95452 12.7263 5.50001 11 5.50001C9.27357 5.50001 7.6885 5.95452 6.24475 6.86355C4.801 7.77257 3.69718 8.99862 2.93329 10.5417C3.69718 12.0847 4.801 13.3108 6.24475 14.2198C7.6885 15.1288 9.27357 15.5833 11 15.5833Z" fill="#EDE6D8"/>
</svg>
